<?xml version="1.0" encoding="UTF-8" standalone="no"?>
<!DOCTYPE svg PUBLIC "-//W3C//DTD SVG 1.1//EN"
 "http://www.w3.org/Graphics/SVG/1.1/DTD/svg11.dtd">
<!-- Generated by graphviz version 2.38.0 (20140413.2041)
 -->
<!-- Title: Tree Pages: 1 -->
<svg width="588pt" height="489pt"
 viewBox="0.00 0.00 588.00 488.80" xmlns="http://www.w3.org/2000/svg" xmlns:xlink="http://www.w3.org/1999/xlink">
<g id="graph0" class="graph" transform="scale(1 1) rotate(0) translate(4 484.8)">
<title>Tree</title>
<polygon fill="white" stroke="none" points="-4,4 -4,-484.8 584,-484.8 584,4 -4,4"/>
<!-- 0 -->
<g id="node1" class="node"><title>0</title>
<polygon fill="none" stroke="black" points="419.536,-480.9 300.464,-480.9 300.464,-405.5 419.536,-405.5 419.536,-480.9"/>
<text text-anchor="middle" x="360" y="-464.2" font-family="Times,serif" font-size="14.00">one &lt;= 1.1286</text>
<text text-anchor="middle" x="360" y="-447.4" font-family="Times,serif" font-size="14.00">gini = 0.5</text>
<text text-anchor="middle" x="360" y="-430.6" font-family="Times,serif" font-size="14.00">samples = 1000</text>
<text text-anchor="middle" x="360" y="-413.8" font-family="Times,serif" font-size="14.00">value = [500, 500]</text>
</g>
<!-- 1 -->
<g id="node2" class="node"><title>1</title>
<polygon fill="none" stroke="black" points="354.536,-369.7 235.464,-369.7 235.464,-294.3 354.536,-294.3 354.536,-369.7"/>
<text text-anchor="middle" x="295" y="-353" font-family="Times,serif" font-size="14.00">one &lt;= &#45;2.8436</text>
<text text-anchor="middle" x="295" y="-336.2" font-family="Times,serif" font-size="14.00">gini = 0.4444</text>
<text text-anchor="middle" x="295" y="-319.4" font-family="Times,serif" font-size="14.00">samples = 750</text>
<text text-anchor="middle" x="295" y="-302.6" font-family="Times,serif" font-size="14.00">value = [250, 500]</text>
</g>
<!-- 0&#45;&gt;1 -->
<g id="edge1" class="edge"><title>0&#45;&gt;1</title>
<path fill="none" stroke="black" d="M338.175,-405.534C333.03,-396.891 327.484,-387.573 322.137,-378.589"/>
<polygon fill="black" stroke="black" points="325,-376.558 316.878,-369.755 318.985,-380.138 325,-376.558"/>
<text text-anchor="middle" x="310.729" y="-389.787" font-family="Times,serif" font-size="14.00">True</text>
</g>
<!-- 286 -->
<g id="node17" class="node"><title>286</title>
<polygon fill="none" stroke="black" points="478.537,-361.401 373.463,-361.401 373.463,-302.599 478.537,-302.599 478.537,-361.401"/>
<text text-anchor="middle" x="426" y="-344.6" font-family="Times,serif" font-size="14.00">gini = 0.0</text>
<text text-anchor="middle" x="426" y="-327.8" font-family="Times,serif" font-size="14.00">samples = 250</text>
<text text-anchor="middle" x="426" y="-311" font-family="Times,serif" font-size="14.00">value = [250, 0]</text>
</g>
<!-- 0&#45;&gt;286 -->
<g id="edge16" class="edge"><title>0&#45;&gt;286</title>
<path fill="none" stroke="black" d="M382.161,-405.534C389.016,-394.192 396.574,-381.687 403.455,-370.302"/>
<polygon fill="black" stroke="black" points="406.625,-371.824 408.802,-361.455 400.634,-368.203 406.625,-371.824"/>
<text text-anchor="middle" x="414.787" y="-381.528" font-family="Times,serif" font-size="14.00">False</text>
</g>
<!-- 2 -->
<g id="node3" class="node"><title>2</title>
<polygon fill="none" stroke="black" points="289.536,-258.5 170.464,-258.5 170.464,-183.1 289.536,-183.1 289.536,-258.5"/>
<text text-anchor="middle" x="230" y="-241.8" font-family="Times,serif" font-size="14.00">two &lt;= &#45;2.6547</text>
<text text-anchor="middle" x="230" y="-225" font-family="Times,serif" font-size="14.00">gini = 0.491</text>
<text text-anchor="middle" x="230" y="-208.2" font-family="Times,serif" font-size="14.00">samples = 566</text>
<text text-anchor="middle" x="230" y="-191.4" font-family="Times,serif" font-size="14.00">value = [245, 321]</text>
</g>
<!-- 1&#45;&gt;2 -->
<g id="edge2" class="edge"><title>1&#45;&gt;2</title>
<path fill="none" stroke="black" d="M273.175,-294.334C268.03,-285.691 262.484,-276.373 257.137,-267.389"/>
<polygon fill="black" stroke="black" points="260,-265.358 251.878,-258.555 253.985,-268.938 260,-265.358"/>
</g>
<!-- 267 -->
<g id="node10" class="node"><title>267</title>
<polygon fill="none" stroke="black" points="413.537,-258.5 308.463,-258.5 308.463,-183.1 413.537,-183.1 413.537,-258.5"/>
<text text-anchor="middle" x="361" y="-241.8" font-family="Times,serif" font-size="14.00">one &lt;= &#45;2.3514</text>
<text text-anchor="middle" x="361" y="-225" font-family="Times,serif" font-size="14.00">gini = 0.0529</text>
<text text-anchor="middle" x="361" y="-208.2" font-family="Times,serif" font-size="14.00">samples = 184</text>
<text text-anchor="middle" x="361" y="-191.4" font-family="Times,serif" font-size="14.00">value = [5, 179]</text>
</g>
<!-- 1&#45;&gt;267 -->
<g id="edge9" class="edge"><title>1&#45;&gt;267</title>
<path fill="none" stroke="black" d="M317.161,-294.334C322.385,-285.691 328.017,-276.373 333.446,-267.389"/>
<polygon fill="black" stroke="black" points="336.608,-268.924 338.785,-258.555 330.617,-265.303 336.608,-268.924"/>
</g>
<!-- 3 -->
<g id="node4" class="node"><title>3</title>
<polygon fill="none" stroke="black" points="153.037,-147.3 40.9634,-147.3 40.9634,-71.8997 153.037,-71.8997 153.037,-147.3"/>
<text text-anchor="middle" x="97" y="-130.6" font-family="Times,serif" font-size="14.00">two &lt;= &#45;8.8893</text>
<text text-anchor="middle" x="97" y="-113.8" font-family="Times,serif" font-size="14.00">gini = 0.3761</text>
<text text-anchor="middle" x="97" y="-97" font-family="Times,serif" font-size="14.00">samples = 235</text>
<text text-anchor="middle" x="97" y="-80.2" font-family="Times,serif" font-size="14.00">value = [59, 176]</text>
</g>
<!-- 2&#45;&gt;3 -->
<g id="edge3" class="edge"><title>2&#45;&gt;3</title>
<path fill="none" stroke="black" d="M185.343,-183.134C173.938,-173.77 161.57,-163.615 149.799,-153.951"/>
<polygon fill="black" stroke="black" points="151.715,-150.996 141.766,-147.355 147.273,-156.406 151.715,-150.996"/>
</g>
<!-- 82 -->
<g id="node7" class="node"><title>82</title>
<polygon fill="none" stroke="black" points="290.536,-147.3 171.464,-147.3 171.464,-71.8997 290.536,-71.8997 290.536,-147.3"/>
<text text-anchor="middle" x="231" y="-130.6" font-family="Times,serif" font-size="14.00">two &lt;= 3.5423</text>
<text text-anchor="middle" x="231" y="-113.8" font-family="Times,serif" font-size="14.00">gini = 0.4923</text>
<text text-anchor="middle" x="231" y="-97" font-family="Times,serif" font-size="14.00">samples = 331</text>
<text text-anchor="middle" x="231" y="-80.2" font-family="Times,serif" font-size="14.00">value = [186, 145]</text>
</g>
<!-- 2&#45;&gt;82 -->
<g id="edge6" class="edge"><title>2&#45;&gt;82</title>
<path fill="none" stroke="black" d="M230.336,-183.134C230.411,-174.941 230.491,-166.141 230.57,-157.596"/>
<polygon fill="black" stroke="black" points="234.072,-157.387 230.663,-147.355 227.072,-157.322 234.072,-157.387"/>
</g>
<!-- 4 -->
<g id="node5" class="node"><title>4</title>
<polygon fill="none" stroke="black" points="54,-36 0,-36 0,-0 54,-0 54,-36"/>
<text text-anchor="middle" x="27" y="-13.8" font-family="Times,serif" font-size="14.00">(...)</text>
</g>
<!-- 3&#45;&gt;4 -->
<g id="edge4" class="edge"><title>3&#45;&gt;4</title>
<path fill="none" stroke="black" d="M68.3263,-71.8977C61.0771,-62.6186 53.4532,-52.8601 46.7552,-44.2866"/>
<polygon fill="black" stroke="black" points="49.3284,-41.8953 40.4139,-36.1698 43.8123,-46.2048 49.3284,-41.8953"/>
</g>
<!-- 17 -->
<g id="node6" class="node"><title>17</title>
<polygon fill="none" stroke="black" points="126,-36 72,-36 72,-0 126,-0 126,-36"/>
<text text-anchor="middle" x="99" y="-13.8" font-family="Times,serif" font-size="14.00">(...)</text>
</g>
<!-- 3&#45;&gt;17 -->
<g id="edge5" class="edge"><title>3&#45;&gt;17</title>
<path fill="none" stroke="black" d="M97.8192,-71.8977C98.0113,-63.2952 98.2125,-54.2807 98.3933,-46.1803"/>
<polygon fill="black" stroke="black" points="101.893,-46.2454 98.6167,-36.1698 94.8944,-46.0891 101.893,-46.2454"/>
</g>
<!-- 83 -->
<g id="node8" class="node"><title>83</title>
<polygon fill="none" stroke="black" points="211,-36 157,-36 157,-0 211,-0 211,-36"/>
<text text-anchor="middle" x="184" y="-13.8" font-family="Times,serif" font-size="14.00">(...)</text>
</g>
<!-- 82&#45;&gt;83 -->
<g id="edge7" class="edge"><title>82&#45;&gt;83</title>
<path fill="none" stroke="black" d="M211.748,-71.8977C207.032,-62.9086 202.081,-53.4696 197.688,-45.0938"/>
<polygon fill="black" stroke="black" points="200.751,-43.3995 193.006,-36.1698 194.552,-46.6512 200.751,-43.3995"/>
</g>
<!-- 136 -->
<g id="node9" class="node"><title>136</title>
<polygon fill="none" stroke="black" points="283,-36 229,-36 229,-0 283,-0 283,-36"/>
<text text-anchor="middle" x="256" y="-13.8" font-family="Times,serif" font-size="14.00">(...)</text>
</g>
<!-- 82&#45;&gt;136 -->
<g id="edge8" class="edge"><title>82&#45;&gt;136</title>
<path fill="none" stroke="black" d="M241.241,-71.8977C243.668,-63.1986 246.213,-54.0781 248.492,-45.9076"/>
<polygon fill="black" stroke="black" points="251.893,-46.7425 251.209,-36.1698 245.15,-44.8612 251.893,-46.7425"/>
</g>
<!-- 268 -->
<g id="node11" class="node"><title>268</title>
<polygon fill="none" stroke="black" points="412.165,-147.3 309.835,-147.3 309.835,-71.8997 412.165,-71.8997 412.165,-147.3"/>
<text text-anchor="middle" x="361" y="-130.6" font-family="Times,serif" font-size="14.00">one &lt;= &#45;2.3738</text>
<text text-anchor="middle" x="361" y="-113.8" font-family="Times,serif" font-size="14.00">gini = 0.1855</text>
<text text-anchor="middle" x="361" y="-97" font-family="Times,serif" font-size="14.00">samples = 29</text>
<text text-anchor="middle" x="361" y="-80.2" font-family="Times,serif" font-size="14.00">value = [3, 26]</text>
</g>
<!-- 267&#45;&gt;268 -->
<g id="edge10" class="edge"><title>267&#45;&gt;268</title>
<path fill="none" stroke="black" d="M361,-183.134C361,-174.941 361,-166.141 361,-157.596"/>
<polygon fill="black" stroke="black" points="364.5,-157.355 361,-147.355 357.5,-157.355 364.5,-157.355"/>
</g>
<!-- 279 -->
<g id="node14" class="node"><title>279</title>
<polygon fill="none" stroke="black" points="535.537,-147.3 430.463,-147.3 430.463,-71.8997 535.537,-71.8997 535.537,-147.3"/>
<text text-anchor="middle" x="483" y="-130.6" font-family="Times,serif" font-size="14.00">one &lt;= &#45;1.493</text>
<text text-anchor="middle" x="483" y="-113.8" font-family="Times,serif" font-size="14.00">gini = 0.0255</text>
<text text-anchor="middle" x="483" y="-97" font-family="Times,serif" font-size="14.00">samples = 155</text>
<text text-anchor="middle" x="483" y="-80.2" font-family="Times,serif" font-size="14.00">value = [2, 153]</text>
</g>
<!-- 267&#45;&gt;279 -->
<g id="edge13" class="edge"><title>267&#45;&gt;279</title>
<path fill="none" stroke="black" d="M401.964,-183.134C412.324,-173.86 423.553,-163.81 434.256,-154.23"/>
<polygon fill="black" stroke="black" points="436.82,-156.632 441.937,-147.355 432.151,-151.416 436.82,-156.632"/>
</g>
<!-- 269 -->
<g id="node12" class="node"><title>269</title>
<polygon fill="none" stroke="black" points="361,-36 307,-36 307,-0 361,-0 361,-36"/>
<text text-anchor="middle" x="334" y="-13.8" font-family="Times,serif" font-size="14.00">(...)</text>
</g>
<!-- 268&#45;&gt;269 -->
<g id="edge11" class="edge"><title>268&#45;&gt;269</title>
<path fill="none" stroke="black" d="M349.94,-71.8977C347.319,-63.1986 344.57,-54.0781 342.108,-45.9076"/>
<polygon fill="black" stroke="black" points="345.41,-44.7346 339.174,-36.1698 338.708,-46.7544 345.41,-44.7346"/>
</g>
<!-- 278 -->
<g id="node13" class="node"><title>278</title>
<polygon fill="none" stroke="black" points="433,-36 379,-36 379,-0 433,-0 433,-36"/>
<text text-anchor="middle" x="406" y="-13.8" font-family="Times,serif" font-size="14.00">(...)</text>
</g>
<!-- 268&#45;&gt;278 -->
<g id="edge12" class="edge"><title>268&#45;&gt;278</title>
<path fill="none" stroke="black" d="M379.433,-71.8977C383.899,-63.0053 388.586,-53.6725 392.759,-45.3644"/>
<polygon fill="black" stroke="black" points="396.016,-46.6769 397.377,-36.1698 389.761,-43.5352 396.016,-46.6769"/>
</g>
<!-- 280 -->
<g id="node15" class="node"><title>280</title>
<polygon fill="none" stroke="black" points="508,-36 454,-36 454,-0 508,-0 508,-36"/>
<text text-anchor="middle" x="481" y="-13.8" font-family="Times,serif" font-size="14.00">(...)</text>
</g>
<!-- 279&#45;&gt;280 -->
<g id="edge14" class="edge"><title>279&#45;&gt;280</title>
<path fill="none" stroke="black" d="M482.181,-71.8977C481.989,-63.2952 481.788,-54.2807 481.607,-46.1803"/>
<polygon fill="black" stroke="black" points="485.106,-46.0891 481.383,-36.1698 478.107,-46.2454 485.106,-46.0891"/>
</g>
<!-- 285 -->
<g id="node16" class="node"><title>285</title>
<polygon fill="none" stroke="black" points="580,-36 526,-36 526,-0 580,-0 580,-36"/>
<text text-anchor="middle" x="553" y="-13.8" font-family="Times,serif" font-size="14.00">(...)</text>
</g>
<!-- 279&#45;&gt;285 -->
<g id="edge15" class="edge"><title>279&#45;&gt;285</title>
<path fill="none" stroke="black" d="M511.674,-71.8977C518.923,-62.6186 526.547,-52.8601 533.245,-44.2866"/>
<polygon fill="black" stroke="black" points="536.188,-46.2048 539.586,-36.1698 530.672,-41.8953 536.188,-46.2048"/>
</g>
</g>
</svg>
